<svg width="1250" height="180" viewBox="0 0 350 255" class="" 
xmlns="http://www.w3.org/2000/svg">
  <defs id="SvgjsDefs4968">
    <linearGradient id="SvgjsLinearGradient4975">
      <stop id="SvgjsStop4976" stop-color="#ef4136" offset="0"></stop>
      <stop id="SvgjsStop4977" stop-color="#fbb040" offset="1"></stop>
    </linearGradient>
    <linearGradient id="SvgjsLinearGradient4978">
      <stop id="SvgjsStop4979" stop-color="#ef4136" offset="0"></stop>
      <stop id="SvgjsStop4980" stop-color="#fbb040" offset="1"></stop>
    </linearGradient>
    <linearGradient id="SvgjsLinearGradient4981">
      <stop id="SvgjsStop4982" stop-color="#ef4136" offset="0"></stop>
      <stop id="SvgjsStop4983" stop-color="#fbb040" offset="1"></stop>
    </linearGradient>
  </defs>
  <g id="SvgjsG4969" featurekey="symbolFeature-0" transform="matrix(4.375,0,0,4.375,105,0)"
    >

    <g>
      <circle display="inline" fill="url(#SvgjsLinearGradient4975)" cx="16" cy="16" r="16"></circle>
      <g display="inline">
        <polygon fill="url(#SvgjsLinearGradient4975)" points="16,4.788 23.074,25.212 8.926,25.212   "></polygon>
      </g>
    </g>
    <g>


      <g display="inline">
        <g>
          <polygon fill="url(#SvgjsLinearGradient4975)" points="16,4.788 23.074,25.212 8.926,25.212    "></polygon>
        </g>
      </g>
    </g>
    <g>
      <g display="inline">
        <path fill="url(#SvgjsLinearGradient4975)"
          d="M16,31.5C7.453,31.5,0.5,24.547,0.5,16S7.453,0.5,16,0.5S31.5,7.453,31.5,16S24.547,31.5,16,31.5z"></path>
        <path fill="url(#SvgjsLinearGradient4975)"
          d="M16,1c8.271,0,15,6.729,15,15s-6.729,15-15,15S1,24.271,1,16S7.729,1,16,1 M16,0C7.163,0,0,7.163,0,16    s7.163,16,16,16s16-7.163,16-16S24.837,0,16,0L16,0z">
        </path>
      </g>
      <polygon display="inline" fill="url(#SvgjsLinearGradient4975)" points="16,4.788 23.074,25.212 8.926,25.212  ">
      </polygon>
    </g>
    <g>
      <g display="inline">
        <path fill="url(#SvgjsLinearGradient4975)"
          d="M16,1c8.271,0,15,6.729,15,15s-6.729,15-15,15S1,24.271,1,16S7.729,1,16,1 M16,0C7.163,0,0,7.163,0,16    s7.163,16,16,16s16-7.163,16-16S24.837,0,16,0L16,0z">
        </path>
      </g>
      <g display="inline">
        <g>
          <path fill="url(#SvgjsLinearGradient4975)"
            d="M16,7.844l5.669,16.368H10.331L16,7.844 M16,4.788L8.926,25.212h14.147L16,4.788L16,4.788z"></path>
        </g>
      </g>
    </g>
    <g xmlns="http://www.w3.org/2000/svg">
      <path
        d="M32,16c0-8.837-7.163-16-16-16S0,7.163,0,16s7.163,16,16,16S32,24.837,32,16z M0.5,16C0.5,7.453,7.453,0.5,16,0.5   c8.547,0,15.5,6.953,15.5,15.5c0,8.547-6.953,15.5-15.5,15.5C7.453,31.5,0.5,24.547,0.5,16z">
      </path>
      <path d="M16,4.788L8.926,25.212h14.147L16,4.788z M16,6.316l6.371,18.396H9.629L16,6.316z"></path>
    </g>
    <g>
      <g display="inline">
        <g>
          <g>
            <path fill="url(#SvgjsLinearGradient4975)"
              d="M32,15.846C31.609,6.669,24.056-0.462,14.749,0.329C6.634,1.018,0,7.895,0,16.115      c0,9.143,8.093,16.28,17.105,15.567C25.503,31.018,31.647,24.225,32,15.929c0.02-0.473-1.143-0.241-1.159,0.146      c-0.378,8.883-7.729,16.412-17.116,14.798c-7.258-1.248-12.509-7.707-12.51-14.985c0-9.184,8.399-16.624,17.69-14.621      c7.163,1.544,11.633,7.806,11.935,14.89C30.856,16.524,32.019,16.293,32,15.846z">
            </path>
          </g>
        </g>
        <g>
          <g>
            <path fill="url(#SvgjsLinearGradient4975)"
              d="M15.42,5.359c1.632,4.709,3.264,9.418,4.897,14.127c0.634,1.828,1.359,3.649,1.908,5.505      c-0.225-0.761,1.09-0.441,0.142-0.538c-0.533-0.054-1.099,0-1.635,0c-1.56,0-3.12,0-4.679,0c-1.462,0-2.923,0-4.385,0      c-0.581,0-1.166,0.019-1.747,0c-0.985-0.033-0.194-0.091-0.173,0.446c-0.062-1.554,1.408-4.062,1.908-5.505      c1.632-4.709,3.264-9.418,4.897-14.127c0.217-0.626-0.94-0.607-1.107-0.127c-2.272,6.556-4.545,13.112-6.817,19.669      c-0.123,0.356,0.202,0.482,0.5,0.482c4.545,0,9.09,0,13.635,0c0.239,0,0.744-0.252,0.633-0.574      c-2.272-6.556-4.545-13.112-6.817-19.669C16.399,4.529,15.244,4.85,15.42,5.359z">
            </path>
          </g>
        </g>
      </g>
    </g>
    <g>
      <g display="inline">
        <path fill="url(#SvgjsLinearGradient4975)"
          d="M16,2c7.72,0,14,6.28,14,14s-6.28,14-14,14S2,23.72,2,16S8.28,2,16,2 M16,0C7.163,0,0,7.163,0,16    s7.163,16,16,16s16-7.163,16-16S24.837,0,16,0L16,0z">
        </path>
      </g>
      <g display="inline">
        <g>
          <g>
            <path fill="url(#SvgjsLinearGradient4975)"
              d="M16,10.899l4.264,12.312h-8.529L16,10.899 M16,4.788L8.926,25.212h14.147L16,4.788L16,4.788z"></path>
          </g>
        </g>
      </g>
    </g>
    <g>
      <g display="inline">
        <path fill="url(#SvgjsLinearGradient4975)"
          d="M16,31.5C7.453,31.5,0.5,24.547,0.5,16S7.453,0.5,16,0.5S31.5,7.453,31.5,16S24.547,31.5,16,31.5z"></path>
        <g>
          <path
            d="M16,1c8.271,0,15,6.729,15,15s-6.729,15-15,15S1,24.271,1,16S7.729,1,16,1 M16,0C7.163,0,0,7.163,0,16s7.163,16,16,16     s16-7.163,16-16S24.837,0,16,0L16,0z">
          </path>
        </g>
      </g>
      <g display="inline">
        <polygon fill="url(#SvgjsLinearGradient4975)" points="9.629,24.712 16,6.316 22.371,24.712   "></polygon>
        <g>
          <path d="M16,7.844l5.669,16.368H10.331L16,7.844 M16,4.788L8.926,25.212h14.147L16,4.788L16,4.788z"></path>
        </g>
      </g>
    </g>
    <g>
      <path display="inline"
        d="M16,0C7.163,0,0,7.163,0,16s7.163,16,16,16s16-7.163,16-16S24.837,0,16,0z M8.926,25.212L16,4.788   l7.074,20.423H8.926z">
      </path>
    </g>
  </g>
  <g id="SvgjsG4970" featurekey="nameFeature-0"
    transform="matrix(2.14671235069008,0,0,2.14671235069008,-2.14671235069008,129.51668912418262)"
    fill="url(#SvgjsLinearGradient4978)">
    <path
      d="M11.32 21.56 c-4.8 0 -8.36 3.68 -8.36 8.44 c0 4.72 3.56 8.4 8.36 8.4 c4.72 0 8.36 -3.64 8.36 -8.4 c0 -4.8 -3.64 -8.44 -8.36 -8.44 z M19.56 40 l0 -3.96 c-1.64 2.48 -4.52 4.24 -8.36 4.24 c-5.72 0 -10.2 -4.48 -10.2 -10.32 c0 -5.8 4.48 -10.28 10.2 -10.28 c3.84 0 6.68 1.72 8.36 4.12 l0 -3.8 l1.96 0 l0 20 l-1.96 0 z M33.36 19.68 l0 2.16 c-3.84 0 -6.68 2.92 -6.68 7.28 l0 10.88 l-1.96 0 l0 -20 l1.96 0 l0 3.72 c0.76 -1.52 2.92 -4.04 6.68 -4.04 z M44.6 19.68 l0 2.16 c-3.84 0 -6.68 2.92 -6.68 7.28 l0 10.88 l-1.96 0 l0 -20 l1.96 0 l0 3.72 c0.76 -1.52 2.92 -4.04 6.68 -4.04 z M49.160000000000004 20 l0 2.92 c0.96 -1.64 3 -3.24 6.28 -3.24 c3.08 0 5.44 1.52 6.56 4.04 c1.08 -2.04 3.28 -4.04 7 -4.04 c4.4 0 7.28 3.04 7.28 7.76 l0 12.56 l-1.96 0 l0 -12.4 c0 -3.8 -2.08 -6.04 -5.52 -6.04 c-3.6 0 -6.08 2.32 -6.08 6.28 l0 12.16 l-1.96 0 l0 -12.4 c0 -3.8 -2.08 -6.04 -5.52 -6.04 c-3.68 0 -6.08 2.44 -6.08 6.56 l0 11.88 l-1.96 0 l0 -20 l1.96 0 z M89.19999999999999 21.56 c-4.8 0 -8.36 3.68 -8.36 8.44 c0 4.72 3.56 8.4 8.36 8.4 c4.72 0 8.36 -3.64 8.36 -8.4 c0 -4.8 -3.64 -8.44 -8.36 -8.44 z M97.44 40 l0 -3.96 c-1.64 2.48 -4.52 4.24 -8.36 4.24 c-5.72 0 -10.2 -4.48 -10.2 -10.32 c0 -5.8 4.48 -10.28 10.2 -10.28 c3.84 0 6.68 1.72 8.36 4.12 l0 -3.8 l1.96 0 l0 20 l-1.96 0 z M106.72 20 l5.56 0 l0 1.76 l-5.56 0 l0 12.16 c0 3.36 2.2 4.2 4 4.2 l1.52 0 l0 1.88 l-1.56 0 c-2.72 0 -5.88 -1.52 -5.88 -6.08 l0 -12.16 l-3 0 l0 -1.76 l3 0 l0 -5.8 l1.92 0 l0 5.8 z M131.28 40 l-1.96 0 l0 -3.04 c-0.92 1.56 -3.04 3.36 -6.68 3.36 c-4.68 0 -7.76 -3.16 -7.76 -8.08 l0 -12.24 l1.96 0 l0 12 c0 4.04 2.24 6.44 6 6.44 c3.92 0 6.48 -2.64 6.48 -7 l0 -11.44 l1.96 0 l0 20 z M143.12 19.68 l0 2.16 c-3.84 0 -6.68 2.92 -6.68 7.28 l0 10.88 l-1.96 0 l0 -20 l1.96 0 l0 3.72 c0.76 -1.52 2.92 -4.04 6.68 -4.04 z M153.84 21.56 c-4.8 0 -8.36 3.68 -8.36 8.44 c0 4.72 3.56 8.4 8.36 8.4 c4.72 0 8.36 -3.64 8.36 -8.4 c0 -4.8 -3.64 -8.44 -8.36 -8.44 z M162.08 40 l0 -3.96 c-1.64 2.48 -4.52 4.24 -8.36 4.24 c-5.72 0 -10.2 -4.48 -10.2 -10.32 c0 -5.8 4.48 -10.28 10.2 -10.28 c3.84 0 6.68 1.72 8.36 4.12 l0 -3.8 l1.96 0 l0 20 l-1.96 0 z">
    </path>
  </g>
</svg>